<svg version="1.0" xmlns="http://www.w3.org/2000/svg"
 width="800.000000pt" height="800.000000pt" viewBox="0 0 800.000000 800.000000">
<g transform="translate(0.000000,800.000000) scale(0.100000,-0.100000)"
fill="#000000" stroke="none">
<path d="M1437 6520 c-200 -36 -387 -137 -523 -283 -103 -109 -168 -224 -216
-379 l-23 -73 -3 -1890 c-3 -2119 -8 -1962 71 -2118 59 -117 171 -228 287
-285 148 -72 144 -72 790 -72 536 0 578 2 615 19 51 23 102 74 126 126 18 38
19 86 19 1003 0 602 4 962 9 960 6 -1 292 -217 636 -478 345 -261 648 -485
673 -497 57 -27 134 -30 192 -7 23 9 166 112 320 228 703 533 999 756 1005
756 3 0 5 -433 5 -962 0 -1083 -5 -1002 76 -1080 74 -70 49 -68 686 -68 644 0
641 0 788 72 119 59 229 169 288 288 78 160 73 -4 70 2112 l-3 1893 -23 73
c-99 320 -321 541 -639 639 -80 24 -103 27 -248 27 -145 0 -168 -3 -248 -27
-99 -31 -186 -72 -267 -128 -30 -20 -392 -294 -805 -608 -412 -314 -828 -630
-922 -702 l-173 -131 -932 709 c-513 390 -953 723 -978 740 -142 97 -291 143
-475 148 -71 2 -152 0 -178 -5z m320 -531 c42 -21 452 -326 1090 -812 563
-428 1040 -785 1060 -794 58 -24 142 -21 200 8 26 14 453 333 948 710 495 377
956 728 1025 780 152 115 207 141 315 147 171 9 320 -80 397 -236 l33 -67 3
-1846 2 -1846 -23 -34 c-12 -18 -38 -44 -56 -56 -34 -23 -35 -23 -432 -23
l-399 0 0 1068 c0 1190 3 1135 -67 1213 -56 62 -105 83 -189 84 -62 0 -77 -4
-120 -31 -27 -17 -383 -283 -791 -592 -408 -309 -747 -562 -753 -562 -6 0
-345 253 -753 562 -408 309 -764 576 -791 592 -43 27 -58 31 -120 31 -84 -1
-133 -22 -189 -84 -70 -78 -67 -23 -67 -1213 l0 -1068 -399 0 c-397 0 -398 0
-432 23 -18 12 -44 38 -56 56 l-23 34 2 1846 3 1846 33 67 c53 107 131 176
249 218 46 16 76 20 145 17 75 -3 95 -8 155 -38z"/>
</g>
</svg>
