<svg version="1.1" viewBox="0 0 962.7 1513" xmlns="http://www.w3.org/2000/svg" xmlns:cc="http://creativecommons.org/ns#" xmlns:dc="http://purl.org/dc/elements/1.1/" xmlns:rdf="http://www.w3.org/1999/02/22-rdf-syntax-ns#">
<path d="M 958.827 0 L 956.494 6.25 C 949.876 23.984 937.185 45.242 928.517 60.326 C 914.697 84.373 894.352 135.474 864.514 127.344 C 850.871 123.627 812.198 84.227 794.335 70.135 C 746.349 32.279 706.252 21.909 658.626 11.543 C 564.119 -9.03 454.496 0.356 362.866 36.865 C 260.128 77.798 163.625 161.025 112.285 252.965 C 92.651 288.127 79.358 323.111 69.914 364.475 C 64.186 389.565 61.419 410.605 60.681 434.668 C 58.276 513.032 83.215 581.658 137.126 645.028 C 159.577 671.42 182.028 692.024 221.204 722.192 L 251.672 748.501 L 272.619 763.964 L 353.093 813.61 C 357.044 816.146 380.321 830.828 404.819 846.239 C 539.857 931.189 589.948 965.029 615.095 988.329 C 643.373 1014.51 665.472 1043.85 677.726 1071.48 C 683.724 1085.01 691.129 1110.73 693.561 1126.49 C 704.801 1199.3 676.409 1274.96 616.069 1332.99 C 595.828 1352.45 572.832 1370.22 552.491 1382.1 C 511.787 1405.88 466.194 1420.52 414.126 1426.55 C 395.126 1428.75 347.162 1429.58 328.378 1428.04 C 258.987 1422.34 202.575 1404.38 149.911 1371.23 C 95.097 1336.72 56.476 1292.03 36.694 1240.22 C 18.083 1191.47 8.608 1123.97 7.114 1029.5 L 6.922 1017.5 L -12.737 1017.23 L -32.398 1016.96 L -76.287 1264.97 L -120.18 1512.99 L -100.7 1512.99 C -81.3 1512.99 -81.211 1512.98 -80.346 1510.74 C -79.868 1509.51 -77.265 1502.64 -74.562 1495.49 C -62.198 1462.8 -38.857 1367.726 -20.938 1359.026 C -7.922 1352.706 19.734 1403.723 34.051 1413.12 C 52.777 1425.411 68.273 1445.15 139.117 1468.95 C 178.511 1482.19 206.738 1490.98 229.157 1497 C 259.659 1505.2 301.951 1510.57 346.03 1511.85 C 501.401 1516.37 629.068 1472.7 738.919 1377.47 C 821.361 1306 871.831 1224.99 893.729 1128.99 C 910.641 1054.84 905.021 984.321 877.016 919.261 C 860.739 881.444 834.853 844.159 805.447 816.171 L 794.56 808.571 L 778.502 795.599 L 684.587 724.868 C 649.574 701.831 608.955 676.585 549.64 640.991 C 446.203 578.921 383.798 536.171 334.303 493.481 C 271.367 439.2 246.615 395.816 245.879 338.491 C 245.714 325.667 252.4 288.38 257.266 274.991 C 270.403 238.839 290.815 207.967 321.73 177.491 C 365.662 134.183 417.588 105.587 475.106 93.026 C 513.487 84.645 563.732 83.892 604.951 91.077 C 666.699 101.841 725.02 129.571 770.262 169.679 C 808.124 203.244 833.903 243.592 850.006 294.489 C 866.089 345.335 873.23 410.879 870.795 485.249 L 870.28 500.999 L 890.098 500.999 L 909.916 500.999 L 954.244 250.499 L 998.571 -0.001" style=""></path>
<rect x="211.757" y="-134.981" width="668.824" height="75.67" style=""></rect>
</svg>
